<svg xmlns="http://www.w3.org/2000/svg" width="1000" height="720" viewBox="0 0 1000 720">
  <defs>
    <marker id="mk-admin-orders-management" markerWidth="12" markerHeight="10" refX="10" refY="5" orient="auto" markerUnits="userSpaceOnUse">
      <path d="M 0 0 L 10 5 L 0 10" fill="none" stroke="#000" stroke-width="1.4"/>
    </marker>
    <style>
      .boundary { fill: #fff; stroke: #111; stroke-width: 2.2; }
      .uc { fill: #1fa3a0; stroke: #000; stroke-width: 1.15; }
      .uc-text { font-family: Consolas, 'DejaVu Sans Mono', monospace; fill: #000; text-anchor: middle; dominant-baseline: middle; }
      .title-box { fill: #111; }
      .title-text { font-family: Consolas, 'DejaVu Sans Mono', monospace; font-size: 12.2px; fill: #fff; font-weight: bold; }
      .actor-name { font-family: Consolas, 'DejaVu Sans Mono', monospace; font-size: 11px; fill: #000; text-anchor: middle; }
      .assoc { stroke: #000; stroke-width: 1.45; fill: none; }
      .dep { stroke: #000; stroke-width: 1.45; fill: none; stroke-dasharray: 7 5; marker-end: url(#mk-admin-orders-management); }
      .stereo { font-family: Consolas, 'DejaVu Sans Mono', monospace; font-size: 8px; fill: #111; font-style: italic; }
    </style>
  </defs>
  <ellipse class="boundary" cx="518" cy="360" rx="448" ry="322"/>
  <rect class="title-box" x="395" y="46" width="210" height="34"/>
  <text class="title-text" x="500" y="68" text-anchor="middle">Admin — Orders Management</text>
  
  <g transform="translate(82, 318)">
    <circle cx="0" cy="14" r="12" fill="none" stroke="#000" stroke-width="1.6"/>
    <line x1="0" y1="26" x2="0" y2="72" stroke="#000" stroke-width="1.6"/>
    <line x1="-28" y1="42" x2="28" y2="42" stroke="#000" stroke-width="1.6"/>
    <line x1="0" y1="72" x2="-22" y2="118" stroke="#000" stroke-width="1.6"/>
    <line x1="0" y1="72" x2="22" y2="118" stroke="#000" stroke-width="1.6"/>
  </g>
  <text class="actor-name" x="82" y="470">Admin/Staff</text>
  <ellipse class="uc" cx="408" cy="102" rx="162" ry="23.0"/><text class="uc-text" x="408" y="102" font-size="8.5px">Load Merged Admin Order List</text><ellipse class="uc" cx="408" cy="146" rx="162" ry="23.0"/><text class="uc-text" x="408" y="146" font-size="8.5px">Filter Orders by Status Tabs</text><ellipse class="uc" cx="408" cy="190" rx="162" ry="23.0"/><text class="uc-text" x="408" y="190" font-size="8.5px">Paginate Admin Orders List</text><ellipse class="uc" cx="408" cy="234" rx="162" ry="23.0"/><text class="uc-text" x="408" y="234" font-size="8.5px">View Order Details &amp; Design Media</text><ellipse class="uc" cx="408" cy="278" rx="162" ry="23.0"/><text class="uc-text" x="408" y="278" font-size="8.5px">Verify Customer Payment Receipt</text><ellipse class="uc" cx="408" cy="322" rx="162" ry="26.0"/><text class="uc-text" x="408" y="322" font-size="8.5px"><tspan x="408" dy="-5">Advance Order Through Pipeline</tspan><tspan x="408" dy="12">Stages</tspan></text><ellipse class="uc" cx="408" cy="366" rx="162" ry="23.0"/><text class="uc-text" x="408" y="366" font-size="8.5px">Manual Status Update or Cancellation</text><ellipse class="uc" cx="408" cy="410" rx="162" ry="23.0"/><text class="uc-text" x="408" y="410" font-size="8.5px">Execute Baking Misc Stock-Out</text>
  <ellipse class="uc" cx="712" cy="110" rx="148" ry="24.0"/><text class="uc-text" x="712" y="110" font-size="8.1px"><tspan x="712" dy="-4">Merge &amp; Deduplicate Cloud / Local</tspan><tspan x="712" dy="11">Sources</tspan></text><ellipse class="uc" cx="712" cy="152" rx="148" ry="24.0"/><text class="uc-text" x="712" y="152" font-size="8.1px"><tspan x="712" dy="-4">Persist Status &amp; Inventory Side</tspan><tspan x="712" dy="11">Effects</tspan></text>
  <line class="assoc" x1="112" y1="370" x2="246" y2="102"/><line class="assoc" x1="112" y1="370" x2="246" y2="146"/><line class="assoc" x1="112" y1="370" x2="246" y2="190"/><line class="assoc" x1="112" y1="370" x2="246" y2="234"/><line class="assoc" x1="112" y1="370" x2="246" y2="278"/><line class="assoc" x1="112" y1="370" x2="246" y2="322"/><line class="assoc" x1="112" y1="370" x2="246" y2="366"/><line class="assoc" x1="112" y1="370" x2="246" y2="410"/>
  <path class="dep" d="M 570 102 L 564 110"/><text class="stereo" x="567" y="98" text-anchor="middle">&lt;&lt;include&gt;&gt;</text><path class="dep" d="M 570 322 L 564 152"/><text class="stereo" x="567" y="229" text-anchor="middle">&lt;&lt;include&gt;&gt;</text><path class="dep" d="M 570 410 L 564 152"/><text class="stereo" x="567" y="273" text-anchor="middle">&lt;&lt;include&gt;&gt;</text>
</svg>